<svg xmlns="http://www.w3.org/2000/svg" width="1575" height="1575"><path fill="#FEFEFE" d="M0 0h1575v1575H0V0Z"/><path fill="#307739" d="M423 648c155.5969-.1211 155.5969-.1211 215.2671-.1445a1274538.4354 1274538.4354 0 0 0 52.4682-.0215c30.052-.0128 60.1041-.0353 90.1561-.0629 30.9017-.0283 61.8034-.0468 92.7051-.0528l13.112-.003 2.6065-.0005c13.8127-.0036 27.6255-.0175 41.4383-.0353 13.9066-.0177 27.8133-.0244 41.72-.02 8.249.0023 16.4981-.0037 24.7472-.0219 6.1816-.0127 12.363-.0094 18.5446-.0003 2.4849.0013 4.9698-.0025 7.4547-.012 15.502-.0556 30.4694.906 45.7802 3.3747l2.7299.4393c27.0322 4.4278 53.3164 15.0568 69.9224 37.8263 10.7512 16.5234 13.0343 38.459 9.6641 57.6211-.9041 2.87-1.948 5.4361-3.3164 8.1133l-1.2852 2.5781C1139.9068 769.9425 1130.0094 778.023 1118 785h-2v2l2.6484.7852c14.4804 5.2487 29.0052 19.1448 35.625 32.8515 7.9076 18.7595 3.4733 39.2203-3.8593 57.3945-2.266 4.7573-5.1612 8.8421-8.4141 12.9688l-1.3242 1.8203C1125.4265 912.5116 1097.8564 922.9446 1074 926c-7.1013.8649-14.091 1.1418-21.2412 1.123l-3.3145.0035c-3.6606.0027-7.3211-.0018-10.9817-.0062-2.6526.0004-5.3052.0012-7.9579.0025-5.7648.0021-11.5296.0005-17.2944-.0036-8.572-.006-17.144-.0063-25.716-.0055-14.4207.0014-28.8415-.002-43.2622-.008-14.2765-.0059-28.553-.0097-42.8295-.0108l-2.6908-.0002-13.5288-.001c-31.934-.002-63.868-.0088-95.8021-.0183a583657.936 583657.936 0 0 0-93.0655-.0205l-2.898-.0004-28.8132-.0038c-19.565-.0025-39.1298-.0054-58.6947-.0084l-2.726-.0004a949897.285 949897.285 0 0 1-82.7094-.0162l-2.3718-.0006c-31.7007-.0076-63.4015-.0165-95.1023-.0251V648Z"/><path fill="#2E7637" d="M423 965h734v109H844v251H735v-251H423V965ZM735 251h109v250h313v109H423V501h312V251Z"/><path fill="#FEFEFE" d="M481 817c56.6125-.0507 113.225-.0991 169.8376-.127l2.5385-.0013c18.2046-.009 36.4092-.0173 54.6138-.0249 8.9274-.0037 17.8547-.0076 26.782-.0116l2.6921-.0012c28.8027-.0128 57.6054-.0353 86.408-.0629 29.5949-.0283 59.1898-.0468 88.7847-.0528l12.536-.003 2.4922-.0005c13.2467-.0036 26.4934-.0175 39.74-.0353 13.3128-.0176 26.6254-.0244 39.9381-.02 7.9124.0023 15.8246-.0038 23.737-.0219 5.9042-.0126 11.8083-.0095 17.7125-.0003 2.3918.0013 4.7835-.0026 7.1753-.012 3.2454-.012 6.4902-.0055 9.7355.0056l2.829-.024c9.8165.076 16.1234 3.2104 23.2368 10.0064 4.603 4.969 6.3932 9.1027 6.7109 15.8867-.2061 5.3155-1.5943 9.091-4.5 13.5l-1.75 2.6875c-5.638 5.7945-12.673 9.341-20.8103 9.5609a507.2578 507.2578 0 0 1-5.4703-.0023l-3.0652.007c-3.4048.0053-6.8094-.0037-10.2142-.0126a10774.4 10774.4 0 0 0-7.3783.0052c-5.3551.0035-10.7102.0008-16.0653-.0073-7.9628-.012-15.9257-.0127-23.8885-.011-13.3946.0027-26.7892-.004-40.1839-.016a54656.7433 54656.7433 0 0 0-39.7916-.0216l-2.4983-.0005-12.561-.0018c-29.6624-.0042-59.3248-.0177-88.9872-.0366-28.818-.0184-57.636-.0326-86.454-.041l-2.6915-.0008c-8.9193-.0027-17.8387-.0052-26.758-.0077-18.17-.005-36.34-.0107-54.51-.0167l-2.5317-.0008c-55.797-.0184-111.5938-.0506-167.3907-.0839v-51ZM481 707c56.4748-.1014 112.9497-.1982 169.4246-.254l2.533-.0026c18.1656-.018 36.3313-.0345 54.497-.0498 8.9084-.0075 17.8169-.0153 26.7253-.0232l2.6864-.0024c28.7332-.0255 57.4664-.0706 86.1996-.1258 29.5274-.0566 59.0548-.0935 88.5823-.1057 4.1707-.0017 8.3414-.0037 12.512-.0058l2.4875-.0012c13.2126-.007 26.4252-.035 39.6378-.0705a11995.211 11995.211 0 0 1 39.8508-.04c7.8919.0046 15.7833-.0076 23.6751-.0438 5.8942-.0252 11.7882-.019 17.6824-.0006 2.3838.0025 4.7676-.005 7.1513-.0239 24.1462-.1795 24.1462-.1795 33.5527 8.8617 6.1086 6.3883 7.2898 11.9388 7.103 20.6689-.7513 8.0391-4.9073 12.251-10.789 17.457-6.5117 4.5672-11.8894 5.1963-19.6499 5.1308l-3.0635.0105c-3.397.008-6.7937-.0055-10.1907-.0188-2.4562.0013-4.9124.0039-7.3685.0077-5.345.0053-10.6897.0013-16.0346-.0109-7.9477-.0181-15.8952-.019-23.8429-.0164-13.3694.004-26.7388-.006-40.1082-.024-13.238-.0178-26.4758-.0293-39.7138-.0326l-2.494-.0006c-4.1795-.001-8.3592-.002-12.5388-.0028-29.6064-.0063-59.2128-.0265-88.8192-.0549-28.7626-.0275-57.5253-.0488-86.288-.0615l-2.6866-.0012c-8.903-.004-17.806-.0078-26.7091-.0115-18.1367-.0076-36.2734-.016-54.41-.025l-2.527-.0013C592.378 758.0982 536.689 758.05 481 758v-51Z"/><path fill="#222" d="M162 426c7.4933 5.0226 12.1928 11.417 15 20 .7062 4.6798.986 9.27 1 14l1.9375-2.625c5.3633-6.4298 12.746-10.719 21.0703-11.746 11.8079-.2516 20.8274 3.486 29.7969 11.1288 7.285 7.4406 10.489 16.2008 10.4453 26.5547-.3112 17.6714-7.6886 33.1197-15.4375 48.6875a3248.8065 3248.8065 0 0 0-3.9648 8.0703l-.989 2.0154c-3.6787 7.5325-7.1065 15.1785-10.4454 22.8674l-1.2414 2.789-1.0596 2.4332C207 572 207 572 204 573c-2.2723-.8924-4.3591-1.8431-6.5273-2.9453l-1.9748-.9728a800.0806 800.0806 0 0 1-4.2237-2.0997c-3.7575-1.881-7.5306-3.73-11.3015-5.5838l-2.3136-1.1408c-6.8363-3.3644-13.7336-6.5805-20.6591-9.7576-10.9335-5.0317-21.7694-10.242-32.5866-15.5177-13.149-6.4098-26.3883-12.6062-39.6856-18.7023-2.9352-1.3773-5.8334-2.819-8.7278-4.28.5667-4.6445 1.8463-8.2002 3.9219-12.3828l.8977-1.8298c.9699-1.9743 1.95-3.9433 2.9304-5.9124a3616.461 3616.461 0 0 0 4.1172-8.375l1.0531-2.1438c2.2939-4.6894 4.5038-9.41 6.65-14.1687 17.6226-39.0552 17.6226-39.0552 34.6953-45.5938C141.2764 419.2029 152.2728 420.1322 162 426ZM519 70c22.1812 45.2726 22.1812 45.2726 29.0793 59.7834 3.9294 8.2604 7.9246 16.4884 11.9207 24.7166 5.277 10.8664 10.5295 21.7435 15.7266 32.6484l1.2343 2.5899 1.0562 2.22a95.916 95.916 0 0 0 2.1103 4.1206C581 198 581 198 581 201l-2.3481 1.0823a8763.7766 8763.7766 0 0 0-8.8216 4.0761 3895.278 3895.278 0 0 1-3.8999 1.8006c-8.285 3.8208-16.482 7.7301-24.4616 12.162-2.4688.879-2.4688.879-4.504.2657L535 219l-2.2773-1.6016-2.6602-2.0234-3.1836-2.414c-1.2931-.9868-2.586-1.9738-3.8789-2.961a39513.6027 39513.6027 0 0 0-5.0352-3.836 17302.6551 17302.6551 0 0 1-8.2614-6.2973c-4.5547-3.4735-9.1147-6.9383-13.7034-10.3667-5.4445-4.0678-10.847-8.1897-16.25-12.3125-6.633-5.0587-13.2714-10.11-19.9375-15.125l-2.0146-1.5208c-3.2648-2.481-3.2648-2.481-6.7979-4.5417l1.5945 3.1688a26059.919 26059.919 0 0 1 14.8339 29.5325 11786.3578 11786.3578 0 0 0 7.6273 15.1837 8094.3901 8094.3901 0 0 1 7.3527 14.647 2757.441 2757.441 0 0 0 2.8134 5.5944c1.3131 2.6046 2.6188 5.2128 3.9227 7.822l1.1901 2.3476C493 239.6578 493 239.6578 493 243c-16.4063 8.2031-16.4063 8.2031-19.2852 9.6387a558.4098 558.4098 0 0 0-5.1484 2.6133C463.206 258 463.206 258 461 258c-19.9507-40.8131-19.9507-40.8131-26.98-55.5847-4.2847-8.9959-8.6396-17.9573-12.9919-26.9206-5.1327-10.5715-10.2396-21.1549-15.311-31.756l-1.3616-2.8442-1.2408-2.599c-.9447-1.9454-1.9368-3.8675-2.939-5.7838C399 130 399 130 399 127a4231.1658 4231.1658 0 0 1 17.2424-8.545 1794.3125 1794.3125 0 0 0 5.8633-2.91c2.808-1.3994 5.6219-2.7859 8.4373-4.17l2.6394-1.3257 2.4863-1.2134 2.1735-1.0766c2.5547-.899 4.4667-1.0194 7.1578-.7593 2.6914 1.871 2.6914 1.871 5.5625 4.4375a939.2105 939.2105 0 0 0 3.2148 2.793l1.6363 1.4233c2.3257 1.9736 4.7583 3.7845 7.2114 5.5962 5.1627 3.823 10.2473 7.7362 15.3125 11.6875 5.2576 4.1009 10.5203 8.1939 15.8125 12.25 5.026 3.858 10.0135 7.7618 14.9897 11.6836C514.7874 161.6317 520.8894 166.3206 527 171c-.6358-2.8977-1.5539-5.3707-2.8633-8.0295l-1.17-2.3905c-.422-.8527-.8442-1.7054-1.2792-2.584l-1.3378-2.7253a3886.2597 3886.2597 0 0 0-2.8597-5.8106 4186.582 4186.582 0 0 1-4.4727-9.1061c-4.3292-8.8329-8.67-17.6599-13.0374-26.474-1.6043-3.2414-3.2012-6.4864-4.7966-9.7323-.7456-1.5118-1.4949-3.0219-2.248-4.53-1.0381-2.0793-2.0642-4.164-3.0876-6.2505l-1.7498-3.5278C487 87 487 87 488 84c2.1142-1.2526 4.1532-2.3202 6.371-3.3555l1.932-.9288a639.0917 639.0917 0 0 1 4.0527-1.9235c2.075-.9765 4.1423-1.9679 6.2088-2.9621a3172.3715 3172.3715 0 0 1 3.9316-1.873l1.8814-.8995C516.7665 70 516.7665 70 519 70ZM1419 347l.9111 1.6104c1.4437 2.548 2.8913 5.0938 4.3389 7.6396l1.6099 2.8438c2.8018 4.921 5.6605 9.7864 8.6792 14.578.559.8957 1.1182 1.7912 1.6943 2.714a338.3194 338.3194 0 0 0 3.2832 5.1269c3.5949 5.7551 3.5949 5.7551 3.085 9.1045L1441 393l-1.9688 3.2578a629.9617 629.9617 0 0 1-2.5312 3.8672l-1.435 2.1975c-5.2827 8.063-10.6514 16.0695-16.0084 24.0833-6.1224 9.164-12.1656 18.3776-18.1858 27.609-5.2386 8.0301-10.5253 16.026-15.8708 23.9852 3.918-.6562 6.9353-2.624 10.25-4.6875a2109.69 2109.69 0 0 1 4.0547-2.4727l2.2607-1.3754c4.5719-2.75 9.1948-5.4124 13.8096-8.0894 9.6843-5.6286 19.3086-11.3515 28.8999-17.1372a1574.5631 1574.5631 0 0 1 5.7935-3.4756c2.0745-1.247 4.1372-2.5136 6.1914-3.794l3.2246-1.9721 2.913-1.8108C1465 432 1465 432 1467.1493 432.0053c2.6856 1.4433 3.5215 3.2536 4.9797 5.9127l1.6973 3.0527 1.7363 3.2168 1.748 3.1582c2.6664 4.8376 5.2382 9.7038 7.6895 14.6543-11.6285 7.3678-23.596 14.1546-35.5317 21.0078-5.5345 3.179-11.0644 6.366-16.5933 9.5547-1.0752.62-2.1503 1.24-3.258 1.879-10.2157 5.896-20.4043 11.838-30.5877 17.7895a8993.1172 8993.1172 0 0 1-9.5137 5.5463l-3.2417 1.8885c-2.0274 1.181-4.055 2.3615-6.083 3.5415l-2.808 1.6364-2.7061 1.5743a316.5094 316.5094 0 0 0-5.4864 3.3203l-2.6982 1.668-2.4028 1.5097C1362 534 1362 534 1359 534l-1.7305-3.164a8414.6757 8414.6757 0 0 0-2.457-4.461l-1.3174-2.4011c-2.6021-4.7011-5.2976-9.3217-8.124-13.8919l-1.8215-2.9721a428.3603 428.3603 0 0 0-3.609-5.7588l-1.6437-2.6831-1.4893-2.3665C1336 494 1336 494 1336.6496 491.5432c1.4455-2.7222 2.9861-5.3132 4.659-7.9026l1.996-3.1035 2.1329-3.2871a6140.005 6140.005 0 0 0 2.1992-3.4121c2.116-3.2827 4.2391-6.5606 6.3633-9.8379.9806-1.5155 1.961-3.0312 2.9414-4.5469a6175.0963 6175.0963 0 0 1 3.8337-5.919c4.7978-7.4013 9.543-14.8364 14.2918-22.2692 4.519-7.069 9.061-14.1224 13.6597-21.1399 1.9393-2.9765 3.7232-5.9304 5.2734-9.125l-2.2212 1.3542c-13.8637 8.4478-27.747 16.8543-41.7397 25.0872-7.8184 4.6007-15.615 9.238-23.4141 13.8711l-4.3662 2.5933A89630.084 89630.084 0 0 0 1312 450c-3.0664-2.8447-5.1474-5.6435-7.1992-9.2813l-1.7246-3.0507-1.7637-3.168-1.7988-3.168c-4.7657-8.488-4.7657-8.488-5.5137-12.332 6.4324-4.4397 13.047-8.3902 19.875-12.1875a9860.8311 9860.8311 0 0 0 6.1719-3.4648l3.0683-1.7222c12.7006-7.1564 25.2438-14.5906 37.8144-21.9718 9.9894-5.8646 20.0078-11.676 30.0511-17.4479 4.799-2.7603 9.589-5.5322 14.3474-8.362l2.419-1.4378a895.03 895.03 0 0 0 4.3574-2.6147C1416.782 347 1416.782 347 1419 347ZM819 21c9.938.5479 19.7682 1.4623 29.6387 2.7295 2.151.2756 4.303.543 6.455.8096C865.585 25.8617 865.585 25.8617 869 27c1.1504 2.7073 2.0997 5.3326 3 8.125a3903.8434 3903.8434 0 0 0 1.8477 5.4883l1.0278 3.0727c1.8877 5.5631 3.872 11.0918 5.8475 16.6242 3.5113 9.8397 6.9862 19.6915 10.402 29.5648 4.1804 12.0816 8.5202 24.1053 12.875 36.125 2.1052-7.3405 2.9088-14.74 3.75-22.3125.1644-1.444.3295-2.8878.4951-4.3315.2731-2.3824.5458-4.7648.8165-7.1474 1.2257-10.7813 2.5038-21.5565 3.7754-32.3325.665-5.6382 1.328-11.2767 1.9911-16.9152l.6846-5.8188.2864-2.4347L916 33c3.1513.3078 6.3022.6185 9.4531.9297l2.6685.2605c7.653.7582 15.2642 1.7254 22.8784 2.8098.2943 8.2018-.6255 16.0962-1.7227 24.2148-.1834 1.3951-.3662 2.7903-.5484 4.1855-.3888 2.97-.7811 5.9395-1.1764 8.9086-1.0447 7.8507-2.0659 15.7045-3.0877 23.5583l-.3145 2.4133c-2.5088 19.2641-4.7888 38.5532-7.0295 57.8501l-.4154 3.5621a3416.6882 3416.6882 0 0 0-.7547 6.533l-.3374 2.9015-.2879 2.5027c-.3409 2.4828-.8098 4.9181-1.3254 7.3701-11.0194-1.0361-22.0158-2.1995-33-3.5625l-3.127-.384-2.9355-.37-2.5977-.3263c-4.307-.6575-4.307-.6575-6.3398-1.3572-1.3086-2.4492-1.3086-2.4492-2.4375-5.6875l-1.2773-3.5781L881 162a8379.979 8379.979 0 0 0-2.5-6.9375A7973.7229 7973.7229 0 0 1 876 148c-3.5604-10.0367-3.5604-10.0367-7.2578-20.0234-1.619-4.3114-3.1727-8.647-4.7422-12.9766-.6665-1.8334-1.3331-3.6667-2-5.5a6746.6771 6746.6771 0 0 1-2.8945-7.9688C855.7726 92.3411 852.3836 83.1716 849 74c-1.9823 9.659-3.0445 19.3902-4.129 29.1797-.196 1.7435-.3926 3.487-.5895 5.2305-.514 4.558-1.024 9.1165-1.5326 13.675a20607.0822 20607.0822 0 0 1-2.4623 21.9464 6364.6823 6364.6823 0 0 0-.8524 7.6393c-.1753 1.5614-.3507 3.1227-.5262 4.684l-.2346 2.1317c-.4015 3.5472-.909 7.0257-1.6734 10.5134l-2.1362-.2595a19612.558 19612.558 0 0 0-9.7388-1.178l-3.3594-.4082c-6.5822-.7937-13.1653-1.5279-19.7656-2.1543.6611-13.8712 2.6185-27.6106 4.375-41.375.3076-2.431.615-4.862.9219-7.293a24129.519 24129.519 0 0 1 1.8279-14.4306c2.427-19.1253 4.7745-38.259 7.0627-57.4014.2753-2.2995.5507-4.599.8262-6.8984C817.6764 32.0678 818.3385 26.5339 819 21ZM1253 178c5.0758 1.5008 8.107 4.5984 11.8125 8.1875a3991.9203 3991.9203 0 0 0 3.754 3.5586l1.805 1.7183c2.5055 2.3627 5.1004 4.6139 7.7066 6.8637 2.333 2.0295 4.627 4.0995 6.9219 6.1719 2.9806 2.6898 5.9725 5.3631 9 8 4.7142 4.1154 9.3842 8.2744 14 12.5l2.168 1.9297c7.633 7.1162 14.0906 16.794 15.168 27.3672.1442 12.7525-3.3405 21.471-12.1837 30.6133-8.194 7.6727-17.1226 10.4358-28.2148 10.3906-4.7-.4813-8.7191-2.251-12.9375-4.3008l.9626 1.719c3.0677 6.7454 1.1786 13.5098-1.2435 20.1586-1.6985 4.4209-3.4819 8.8044-5.2816 13.1849-.7133 1.772-1.425 3.5449-2.1348 5.3184a2464.42 2464.42 0 0 1-4.225 10.4672c-3.1118 7.6837-6.095 15.4175-9.0777 23.1519-4.4985 0-4.4985 0-7.1719-2.5977l-1.7522-1.6701-1.8259-1.7947a4246.0891 4246.0891 0 0 0-3.7617-3.5938l-1.8218-1.7539c-4.6666-4.452-9.5852-8.62-14.6665-12.5898.5727-4.4106 1.6884-7.9666 3.5469-12l1.5556-3.4185L1226.75 322c9.9113-18.781 9.9113-18.781 10.621-39.0781-2.418-5.6822-6.5707-9.1935-11.371-12.9219-3.741 1.4997-5.4993 3.5864-7.9375 6.75-3.7144 4.6722-7.602 9.0869-11.6875 13.4375-6.3434 6.7637-12.4733 13.6589-18.375 20.8125-3.9236-1.6161-6.7139-4.3134-9.75-7.1875-1.0697-.9968-2.14-1.9928-3.211-2.9883l-1.5732-1.4673c-5.0007-4.6292-10.2105-9.0213-15.4658-13.3569 3.935-5.475 8.1421-10.4561 12.8125-15.3125 4.0602-4.2806 8.008-8.5693 11.6875-13.1875 4.1856-5.2476 8.7388-10.0812 13.3477-14.9531 3.3672-3.5781 6.5861-7.2027 9.6523-11.0469 3.6271-4.5474 7.506-8.778 11.5-13 4.789-5.0626 9.3017-10.2312 13.6523-15.6797 3.9091-4.696 8.1248-9.1045 12.3047-13.5586 3.4425-3.6721 6.7742-7.4343 10.043-11.2617ZM1494 527c3.5488 2.803 6.8009 5.8062 10 9l2.086 2.0508c14.9226 15.6599 22.5597 37.1703 27.4116 57.8318.5065 2.1348 1.049 4.2583 1.5962 6.383 2.2971 9.466 2.0224 19.0514 1.9062 28.7344-4.2277.841-8.4574 1.6714-12.6875 2.5l-3.6309.7227-3.5058.6835-3.2215.6348c-2.7131.4215-5.2154.5476-7.9543.459l.0793-2.4082c.7728-21.8078.7728-21.8078-5.0793-42.5918l-1.4219-3.3047c-5.7175-12.3265-14.4129-23.3905-27.1836-28.8203-12.489-3.2193-27.038-1.6997-38.2695 4.5625l-3.3047 1.8086c-2.3462 1.459-3.9252 2.8052-5.8203 4.7539h-2l-.8125 1.6953c-1.723 3.344-3.7527 6.4862-5.75 9.6719-3.5261 6.4582-3.7743 12.1758-3.75 19.3828l-.0488 2.8438c-.0066 9.5436 2.2855 17.3549 7.3613 25.4062 3.3378-.6247 6.5484-1.4106 9.793-2.4102l2.6582-.8105c1.836-.5648 3.672-1.13 5.5078-1.6953l2.6465-.8067 2.4109-.7424C1445 622 1445 622 1447 622l-.5508-1.6965c-.8209-2.5373-1.6351-5.0766-2.4492-7.616l-.8672-2.67-.8203-2.5683-.7617-2.3645C1441 603 1441 603 1441 600c3.7472-1.1758 7.4982-2.339 11.25-3.5l3.2227-1.0117 3.1054-.957 2.8565-.8887C1464 593 1464 593 1468 593c16 52.3138 16 52.3138 16 57-12.8046 4.707-25.6876 8.6982-38.8438 12.3008-5.7424 1.5732-11.4546 3.2343-17.1562 4.9492l-2.3691.7092c-3.0395.9181-6.0618 1.8353-9.0489 2.9138l-2.3945.8614-2.1445.8037c-2.4486.5536-3.7318.436-6.043-.5381-1.2292-1.4768-1.2292-1.4768-2.2617-3.4102l-1.189-2.2146-1.2368-2.4377-1.3071-2.5295c-5.2367-10.438-9.1814-21.39-13.0054-32.408l-1.084-3.0681c-2.0738-6.0012-3.7403-11.8364-4.666-18.1194l-.3635-2.447c-2.9283-21.297-.1059-41.2264 12.1096-59.3225 11.9869-15.726 30.2172-25.4743 49.6162-28.7456 18.179-2.264 35.909-.8034 51.3877 9.7026ZM691 31c.5024 2.9592.5024 2.9592.8516 6.879l.1932 2.0807c.2022 2.2002.3913 4.4014.5802 6.6028.1346 1.489.27 2.978.4063 4.4668.3327 3.656.6538 7.313.9687 10.9707l-2.0305-.2078c-23.9728-2.3335-45.4715-.9796-65.7625 13.1531-7.2213 5.9755-13.3861 14.649-14.4426 24.1802-.8755 15.1414 1.0852 28.885 11.2356 40.8745 7.4103 7.7338 16.1416 12.4771 26.9453 13.3008 1.3931.0188 2.7865.0223 4.1797.0117l2.2312-.0083c8.1527-.1534 16.4103-1.3524 23.6438-5.3042-1.3489-9.4103-3.0695-18.695-5-28l-3.289.875a8758.734 8758.734 0 0 1-4.336 1.125l-2.1602.5781c-4.1733 1.072-7.8666 1.6414-12.2148 1.4219-.6569-2.435-1.3005-4.8723-1.9375-7.3125l-.5527-2.0332c-1.0706-4.146-1.7109-8.1697-2.0706-12.4402l-.2546-2.9687L648 97a29291.5757 29291.5757 0 0 1 19.4763-4.1626c2.2046-.4708 4.409-.9421 6.6133-1.414 3.1846-.6818 6.3697-1.3614 9.555-2.0406l2.9432-.6315C693.0383 87.3786 699.5052 86.1447 706 85c3.1754 12.2442 5.8938 24.561 8.5 36.9375.758 3.593 1.5185 7.1854 2.2813 10.7773l.5563 2.6273a585.7984 585.7984 0 0 0 4.4692 19.334C722.6003 157.932 723 160.6157 723 164c-31.0172 15.063-69.188 27.9849-103.6055 17.3203-18.227-7.0895-32.4916-17.927-41.0117-35.8984-5.1233-12.678-7.5615-25.0013-7.6328-38.6719l-.0625-2.9492c-.0836-15.7388 6.123-30.3652 17.0781-41.6328L590 60l1.8594-1.8867C610.4624 40.4244 666.0238 18.5119 691 31Z"/><path fill="#232323" d="M996 50c4.5593.5992 8.8532 2.21 13.1875 3.6875 1.608.5432 3.216 1.0861 4.8242 1.629l2.4937.8441c2.4388.8206 4.8816 1.6275 7.3266 2.4292l2.3723.7806c1.4757.485 2.952.9681 4.4292 1.4487 3.7745 1.2467 7.4677 2.6066 11.1478 4.1106 5.6538 2.2935 11.418 4.1858 17.2187 6.0703 6.6937 2.1746 13.2918 4.4427 19.8076 7.1074 2.7478 1.1187 5.5253 2.1403 8.3174 3.1426l2.8203 1.0156L1092 83c-.6794 5.7607-2.6088 10.9512-4.5625 16.375l-.998 2.8086A1873.9925 1873.9925 0 0 1 1084 109c-5.3758-.4779-9.9331-1.9523-14.9712-3.8589-3.1524-1.1877-6.3238-2.2992-9.5093-3.395l-3.3379-1.1504c-2.2577-.7761-4.5155-1.5522-6.7734-2.3281-5.8356-2.0115-11.635-4.0842-17.4082-6.2676-1.6628-.574-3.3286-1.139-5-1.6875l-2.3125-.7617L1023 89l-.4453 1.8086c-2.3078 8.926-5.4177 17.5316-8.5547 26.1914l3.8477.789c5.3212 1.1844 10.4316 2.8352 15.5898 4.586l2.6582.8828c5.2412 1.7613 10.3835 3.6914 15.5051 5.774 3.6499 1.473 7.3354 2.8463 11.0242 4.2182l2.1758.8125c1.7327.6469 3.4659 1.2923 5.1992 1.9375-.9275 4.0226-2.1993 7.9402-3.4375 11.875l-.6582 2.1055c-1.2607 4.0207-2.5586 8.0262-3.9043 12.0195-7.3067-1.3858-14.057-3.7102-21.0273-6.2793-3.4799-1.2714-6.9772-2.4932-10.4727-3.7207-4.188-1.4736-8.3742-2.9512-12.5508-4.457l-3.7617-1.3555-3.332-1.207c-2.2807-.7831-4.506-1.4514-6.8555-1.9805l-.5156 2.2734c-1.434 6.0561-3.1492 11.7242-5.5664 17.457-1.2298 3.0406-2.0907 6.0984-2.918 9.2696 5.358 2.5496 10.6474 4.5661 16.3535 6.1858 2.3928.7361 4.6465 1.5856 6.955 2.5486 7.1842 2.9128 14.5062 5.4417 21.8165 8.0156 1.448.5115 2.8959 1.0232 4.3438 1.5352A9928.5039 9928.5039 0 0 0 1055 194c-.5293 3.3896-1.0983 6.6692-2.121 9.9453l-.6466 2.0742-.6699 2.1055-.6582 2.129c-1.0683 3.394-2.1695 6.6315-3.9043 9.746-4.5434-.5432-8.5357-1.3857-12.8125-3-8.2745-3.0527-16.608-5.9217-24.9485-8.789-5.138-1.7718-10.2579-3.5688-15.3381-5.5-3.6517-1.3658-7.3424-2.6218-11.0259-3.8985-7.6767-2.6802-15.346-5.3806-23-8.125l-2.8911-1.0222-2.6792-.966-2.3755-.849C950 187 950 187 948 185a7216.172 7216.172 0 0 1 2.8125-8.5l.791-2.3984c1.4686-4.424 3.01-8.8057 4.6663-13.1626 1.2329-3.2738 2.385-6.5756 3.5427-9.8765l1.3945-3.9648.8096-2.304a7372.635 7372.635 0 0 1 3.0106-8.5311c3.2603-9.228 6.496-18.4643 9.725-27.7032 2.4405-6.9813 4.8861-13.9609 7.3309-20.9407.9056-2.5863 1.8105-5.1728 2.7152-7.7593a9611.8075 9611.8075 0 0 1 4.2231-12.0433c.5258-1.4979 1.0506-2.9962 1.5744-4.4948.7219-2.065 1.4473-4.1289 2.1737-6.1924l1.2376-3.529C995 51 995 51 996 50Z"/><path fill="#222" d="M360 153c4.2825 1.5365 6.4106 4.7776 9 8.3125.8538 1.1422 1.708 2.2842 2.5625 3.4258l1.2344 1.6626c1.685 2.2396 3.4385 4.4219 5.2031 6.5991-1.5486 4.1453-4.2537 5.9744-7.75 8.5625-1.1894.8911-2.3782 1.783-3.5664 2.6758l-1.856 1.3852c-2.8736 2.1643-5.6932 4.3954-8.5151 6.6265a9792.0593 9792.0593 0 0 1-3.4648 2.7227 2603.3527 2603.3527 0 0 0-6.188 4.8784c-2.4665 1.9499-4.9378 3.8935-7.4097 5.8364l-2.3855 1.8936-2.2239 1.7431-1.9834 1.5652C331 212 331 212 329 212c3.0531 6.1062 7.2526 11.0734 11.6602 16.2305 1.8665 2.2093 3.6387 4.4326 5.3398 6.7695 2.6597-1.2633 5.01-2.6315 7.3633-4.3984l1.915-1.4344 2.0342-1.5422 2.1318-1.6067c5.463-4.1388 10.8246-8.395 16.1568-12.7004C381.2936 208.7312 387.1166 204.3386 393 200c4.115 3.9547 7.7389 8.1786 11.3125 12.625l1.666 2.0234 1.5723 1.9532 1.427 1.7602C410 220 410 220 410 223c-2.211 1.9883-2.211 1.9883-5.375 4.3125-1.196.891-2.3913 1.783-3.586 2.6758l-1.9677 1.4595c-4.5122 3.3814-8.9353 6.88-13.375 10.3557-3.5468 2.7701-7.1038 5.5147-10.7354 8.173l-1.8476 1.3673c-1.6273 1.1994-3.2645 2.3853-4.9024 3.5703L366 257c0 5.0342 2.0629 7.0664 5.125 10.75a4739.6481 4739.6481 0 0 1 3.0273 3.7422l1.484 1.8193c2.5507 3.1581 4.9493 6.4259 7.3637 9.6885 5.7346-3.5624 10.9284-7.5326 16.0679-11.906 4.797-4.0498 9.7909-7.8034 14.8393-11.5327 3.428-2.539 6.8089-5.1134 10.1201-7.8035l1.9322-1.5627a321.819 321.819 0 0 0 3.6123-2.982c1.6352-1.3264 1.6352-1.3264 4.4282-3.2131 3.3103 1.1034 3.815 1.7187 5.8125 4.4219l1.5703 2.1094L443 252.75l1.6172 2.1719c2.656 3.594 5.1754 7.1844 7.3828 11.0781-11.4064 8.9857-22.8647 17.9037-34.332 26.8115a34062.0596 34062.0596 0 0 0-6.918 5.376c-.7489.582-1.4977 1.1642-2.2693 1.764a2904.3224 2904.3224 0 0 0-13.7932 10.7985C386.8569 316.9165 378.9877 323.0379 371 329c-4.0522-1.5402-5.8336-4.0651-8.375-7.5a3277.3928 3277.3928 0 0 0-2.664-3.5508l-1.4424-1.9321c-2.712-3.6024-5.4942-7.1502-8.2686-10.7046-1.2033-1.5454-2.4064-3.091-3.6094-4.6367l-1.8261-2.3452c-2.9396-3.7758-5.877-7.5533-8.8145-11.3306l-3.5-4.5-21-27-1.752-2.2522c-1.1605-1.4924-2.3207-2.985-3.4804-4.478-3.0068-3.8697-6.0214-7.7327-9.0489-11.5862l-1.8867-2.4082a1571.8724 1571.8724 0 0 0-3.539-4.5C287.9348 225.3445 284.4054 220.253 281 215c6.6814-5.5433 13.456-10.9292 20.3516-16.2031 4.2123-3.223 8.3998-6.4776 12.5859-9.7344l2.3381-1.819c5.137-4.0001 10.2611-8.0163 15.3763-12.0443 5.721-4.5014 11.47-8.9668 17.2211-13.4297 3.7308-2.8968 7.4492-5.8054 11.127-8.7695ZM1130 102c4.1053.5863 6.9462 1.9275 10.4805 4.0703l3.237 1.9439 1.7108 1.0408c3.0254 1.8402 6.0655 3.656 9.103 5.4762l1.8882 1.1345c6.213 3.728 12.4842 7.3521 18.768 10.9593 9.6839 5.5666 19.3446 11.171 28.987 16.809 4.928 2.8806 9.8632 5.7451 14.8255 8.566-1.2892 3.402-2.7652 6.5056-4.6016 9.6445l-1.4843 2.5489-1.5391 2.6191-1.5625 2.6777A2743.8288 2743.8288 0 0 1 1206 176c-4.1608-1.2708-7.7448-2.8298-11.5-5.0195l-3.1582-1.8318-3.3418-1.9612-3.4512-2.0061c-5.7122-3.3231-11.4021-6.6828-17.08-10.0642l-3.0547-1.8172a1364.3162 1364.3162 0 0 1-5.7344-3.438l-2.586-1.5456-2.2597-1.361c-1.785-1.1094-1.785-1.1094-3.834-.9554-2.014 3.4086-4.0087 6.828-6 10.25l-1.7344 2.9336-1.6406 2.832-1.5234 2.6026c-1.3814 2.5495-1.3814 2.5495-1.1016 6.3818l2.0376 1.1707A8326.8051 8326.8051 0 0 1 1164 186l3.3745 1.9541c3.0664 1.7798 6.128 3.5675 9.188 5.3584l2.8442 1.6492 2.5972 1.5266 2.2756 1.3293C1186 199 1186 199 1187 201c-1.0798 2.3384-1.0798 2.3384-2.746 5.2266l-1.7872 3.125-1.9043 3.2734-1.8926 3.2969A1800.6314 1800.6314 0 0 1 1174 224c-3.0789-1.1814-5.9554-2.4435-8.8008-4.1094l-2.1772-1.2676-2.3345-1.373-2.4595-1.4355a4021.5085 4021.5085 0 0 1-5.329-3.1172c-3.1004-1.8152-6.2044-3.624-9.3092-5.4317a16543.7965 16543.7965 0 0 1-15.1206-8.8144c-2.499-1.4687-4.986-2.956-7.4692-4.4512l-.826 2.189c-1.1467 2.7456-2.463 5.218-3.9592 7.7876l-1.6074 2.7812-1.6699 2.8672a2438.9207 2438.9207 0 0 0-3.2852 5.664l-1.469 2.522c-1.3028 2.2592-1.3028 2.2592-2.1833 5.189l2.3828.6406c4.8559 1.8249 9.0653 4.4268 13.4922 7.1094a9725.167 9725.167 0 0 0 5.8594 3.504l3.084 1.848c5.415 3.2303 10.8602 6.4085 16.3066 9.5855l3.105 1.8174 2.9028 1.6943 2.559 1.4949c2.0742 1.1735 4.1657 2.2636 6.3082 3.3059-1.2892 3.402-2.7652 6.5056-4.6016 9.6445l-1.4843 2.5489-1.5391 2.6191-1.5625 2.6777A2743.8288 2743.8288 0 0 1 1149 278c-3.9353-.586-6.7294-1.7815-10.1406-3.8086-.9795-.577-1.959-1.1542-2.968-1.7488l-3.1414-1.8801-3.2566-1.925a2741.4582 2741.4582 0 0 1-6.4968-3.8543c-3.9282-2.3376-7.868-4.655-11.8091-6.9707l-2.0398-1.2019c-5.8268-3.4316-11.678-6.8202-17.5334-10.2026-7.972-4.6076-15.9226-9.252-23.8704-13.9012l-2.9666-1.7334-2.6486-1.5493c-1.3552-.7793-2.7305-1.525-4.1287-2.2241 1.4117-3.7672 3.1354-7.174 5.1328-10.664l1.9182-3.358c.6911-1.2011 1.3825-2.4021 2.074-3.603l2.158-3.7632c5.5072-9.5864 11.127-19.1036 16.7839-28.6025 4.5417-7.6338 9.0096-15.3065 13.4331-23.0093 6.5135-11.34 13.1574-22.5974 19.8438-33.836 3.5877-6.034 7.1288-12.0944 10.6562-18.164Z"/><path fill="#232323" d="M1246.3164 1239.0234c9.6361 4.962 17.4099 12.9982 21.6836 22.9766 3.267 10.2462.6662 19.7382-4 29a9100.2503 9100.2503 0 0 0-2 4l2.4385-.257c11.2898-.654 19.2653 2.8863 29.3115 7.5695a1590.504 1590.504 0 0 0 4.8718 2.1914 1800.2837 1800.2837 0 0 1 9.741 4.4048c6.5962 2.9918 13.2685 5.7952 19.9497 8.5913 2.1004.8851 4.2007 1.7705 6.3008 2.6563 1.4621.6148 2.9243 1.2295 4.3867 1.8437-3.5912 4.358-7.228 8.35-11.5625 12l-2.754 2.375C1322 1338 1322 1338 1319.6974 1337.7634c-3.0225-.8554-5.6963-2.011-8.5371-3.3532l-3.4395-1.6145-1.8083-.8576c-1.8705-.8854-3.7452-1.761-5.6214-2.6341-5.8946-2.7466-11.7678-5.5277-17.6074-8.39l-2.924-1.4025a264.0445 264.0445 0 0 1-5.3023-2.6148c-6.3896-3.0326-12.4148-3.9058-19.4573-2.8967-3.4447 1.577-6.1286 3.5402-9 6l-2.5547 2.1797A281.104 281.104 0 0 0 1237 1328c.5834 3.1705 1.4691 4.8565 3.6953 7.1719l1.6592 1.751 1.7705 1.8271c1.1961 1.2597 2.3914 2.52 3.586 3.7813l1.7372 1.8242c2.3688 2.5103 4.625 5.1105 6.88 7.7226 2.0294 2.333 4.0994 4.627 6.1718 6.9219 10.8354 12.0188 10.8354 12.0188 14.5 17-1.6024 4.2064-4.734 6.8152-8 9.75l-1.6563 1.5352C1263.2585 1391 1263.2585 1391 1261 1391c-1.3047-1.2578-1.3047-1.2578-2.875-3.125l-1.8828-2.211c-.74-.879-1.4799-1.7582-2.2422-2.664a2615.0075 2615.0075 0 0 0-5.75-6.75l-1.553-1.8193c-4.3054-5.022-8.7497-9.9024-13.24-14.7588-2.6255-2.8551-5.1837-5.7596-7.7226-8.6914-2.007-2.2918-4.0584-4.5405-6.1094-6.793-3.0536-3.377-5.9693-6.8197-8.8125-10.375-4.3072-5.333-8.9498-10.286-13.6567-15.2622-4.154-4.4143-8.0193-8.9794-11.7964-13.7222-3.4403-4.1238-7.1263-8.009-10.844-11.883-3.2759-3.4521-5.9921-6.9067-8.5154-10.9451 5.015-4.6017 10.072-9.1063 15.375-13.375 3.4612-2.7904 6.7774-5.6627 10.0088-8.7168 14.8077-13.9834 33.6196-27.462 54.9326-20.8848Z"/><path fill="#242423" d="M839 1406h21c.265 12.9994.5265 25.9988.7823 38.9984.119 6.0411.2393 12.0822.3632 18.1232.5996 29.2972 1.0056 58.5748.8545 87.8784h-27l-2.9727-5.211a9869.3792 9869.3792 0 0 0-26.1508-45.5405c-2.5702-4.4494-5.137-8.9009-7.7039-13.3523-2.4859-4.3104-4.9732-8.62-7.4607-12.9294a15989.0446 15989.0446 0 0 1-4.7822-8.295c-.9348-1.6198-1.8697-3.2396-2.8047-4.8593l-1.1865-2.0623c-4.221-7.3046-8.588-14.5224-12.9385-21.7502-.1053 18.0313-.0757 36.039.5 54.0625.6584 20.6454.5896 41.2837.5 61.9375h-21c-.317-12.5416-.6296-25.0832-.9375-37.625l-.0694-2.8265c-.6429-26.2439-1.217-52.4872-1.6181-78.736l-.031-2.0313c-.1207-7.927-.2358-15.854-.344-23.7812a550.2731 550.2731 0 0 1 12.0674-.3777 221.4297 221.4297 0 0 0 4.0993-.141c11.2788-.4807 11.2788-.4807 15.0041 1.9143 2.6574 2.999 4.4105 6.3839 5.6769 10.1825 2.4226 6.4523 5.9423 12.144 9.4648 18.0469a1931.7263 1931.7263 0 0 1 3.8906 6.75l1.9317 3.3633c3.3682 5.89 6.693 11.8043 10.0207 17.7173 4.3816 7.7674 8.8585 15.4768 13.3858 23.1601 6.2924 10.7148 12.3594 21.5588 18.4587 32.3843l-.038-2.0418c-.1612-8.736-.3146-17.472-.462-26.2082l-.036-2.1326c-.4727-28.2077-.5723-56.4056-.464-84.6174Z"/><path fill="#232323" d="M270 1128c1.6664 1.966 3.218 3.9329 4.75 6 .897 1.198 1.7942 2.396 2.6914 3.5938l1.3208 1.7734c1.0557 1.3926 2.1561 2.751 3.2651 4.1016l1.6602 2.0312 1.4492 1.7188c1.253 2.5854.5796 4.0106-.1367 6.7812-.8776 2.2829-1.8085 4.5456-2.7734 6.793l-.8464 1.983c-.914 2.139-1.8347 4.2752-2.7552 6.4115a7152.9998 7152.9998 0 0 0-1.9216 4.4937 7610.2463 7610.2463 0 0 1-3.8816 9.0654c-2.4799 5.785-4.934 11.5808-7.3843 17.3784l-1.3218 3.1238c-3.8315 9.0616-7.6349 18.1349-11.4359 27.2093-5.527 13.1946-11.095 26.3716-16.6798 39.5419 10.83-7.22 20.9018-15.6632 30.9006-23.9753 5.1704-4.289 10.4428-8.4 15.7908-12.4661 3.8348-2.9393 7.569-5.9996 11.3086-9.0586 5.9239-4.8443 11.922-9.5655 18.0117-14.1992 3.7526-2.8893 7.4151-5.8818 11.0625-8.9024C325 1200 325 1200 327 1200c1.7524 2.0484 3.3863 4.0968 5 6.25l1.3672 1.7773c2.1824 2.8734 4.1879 5.656 5.6328 8.9727-7.3312 5.8834-14.6677 11.7591-22.0625 17.5625l-1.7393 1.365a5513.4656 5513.4656 0 0 1-8.624 6.7483c-6.265 4.8996-12.4767 9.8555-18.6367 14.8867-5.7862 4.7259-11.6524 9.3142-17.5938 13.8438-3.8426 2.9558-7.591 6.025-11.3437 9.0937-10.7726 8.8018-21.8505 17.183-33 25.5-4.0195-3.9295-7.8358-7.9867-11.5-12.25-.575-.6175-1.1498-1.235-1.7422-1.871-3.8393-4.5418-3.8393-4.5418-3.6362-7.8727.775-2.4474 1.7861-4.6822 2.8784-7.0063.897-2.1886 1.7898-4.3788 2.6797-6.5703a3197.7025 3197.7025 0 0 1 3.1953-7.5547 8806.7587 8806.7587 0 0 0 1.743-4.1306c1.2016-2.8492 2.4048-5.6976 3.609-8.5457 1.6594-3.9265 3.31-7.8566 4.9566-11.7885l.7812-1.8654 1.5633-3.734a10544.1668 10544.1668 0 0 1 11.636-27.6819l2.151-5.0994c1.375-3.2592 2.7517-6.5178 4.1295-9.7758 3.9591-9.3766 7.8146-18.7879 11.5554-28.2537-7.1929 5.6344-14.3724 11.2832-21.5 17-8.2588 6.6222-16.5829 13.1599-24.9258 19.6758-6.265 4.8996-12.4764 9.856-18.6367 14.8867-8.7404 7.1308-17.49 14.256-26.9375 20.4375-2.0119-2.428-4.0073-4.8688-6-7.3125l-1.7344-2.0918-1.6406-2.0215-1.5234-1.8567C156 1219 156 1219 156 1216c2.2813-2.0234 2.2813-2.0234 5.5-4.375 1.1996-.891 2.3974-1.7843 3.5938-2.6797l1.9296-1.4404c3.394-2.584 6.6804-5.2981 9.9766-8.0049 4.8009-3.9272 9.6298-7.802 14.5625-11.5625 4.6162-3.5203 9.167-7.1078 13.6875-10.75 5.3099-4.2769 10.6898-8.4462 16.125-12.5625 6.642-5.0361 13.1006-10.2606 19.511-15.5874 6.249-5.1819 12.6392-10.1412 19.114-15.0376l2.5078-1.9453 2.1797-1.6797 1.8242-1.414C268 1128 268 1128 270 1128Z"/><path fill="#FDFDFD" d="M204.0625 1046.3125c1.3447 1.1939 2.6594 2.4226 3.9375 3.6875l1.8828 1.7695c9.319 9.5813 12.4203 21.3752 12.4319 34.3089-.1084 6.393-1.0818 11.3306-4.3147 16.9216l-1.5781 2.7969C207.2966 1121.0057 192.844 1130.8009 176 1136l-3.0195.961c-12.2828 3.5093-24.9834 3.2307-36.672-2.215-12.5366-7.0243-20.4254-17.89-24.617-31.535-2.5942-12.0471-.4656-23.3987 5.7343-33.918 5.0268-7.322 11.1617-13.4303 18.5742-18.293l2.2656-1.5195c19.2664-12.2746 46.11-17.741 65.7969-3.168ZM1360.9375 1162.5625c15.9933 9.327 28.2762 22.1107 34.2266 39.9219 3.101 13.042.2738 24.0758-6.4766 35.2656-6.8517 10.205-15.8525 17.601-27.9297 20.7813-16.7935 2.8544-31.888-2.3099-45.7578-11.5313-4.7203-3.6118-8.88-7.7292-13-12l-1.8867-1.8281c-9.28-9.6453-13.5684-23.5413-13.5471-36.6094.2875-11.0527 5.1914-19.4616 12.4338-27.5625l1.6875-1.9336c16.0668-17.2941 41.1096-14.9726 60.25-4.5039Z"/><path fill="#242424" d="M1465.3203 907.746c6.1647 5.6374 12.1929 14.8429 12.8408 23.376.2922 17.0887-1.742 31.5656-7.1611 47.878l3.295.3298c5.44.6836 10.6803 2.0392 15.9862 3.3929l3.1943.8028c3.3426.8412 6.6836 1.689 10.0245 2.537 2.276.574 4.552 1.1476 6.8281 1.7207A10002.1451 10002.1451 0 0 1 1527 992c-.6113 5.2517-1.4286 9.9401-3.0625 15l-1.0977 3.4375L1522 1013c-8.1024-1.3561-16.0355-3.1552-23.9988-5.1646l-3.788-.9466a6900.9614 6900.9614 0 0 1-10.1755-2.5533c-3.5574-.8941-7.1158-1.7841-10.6741-2.6746a28404.0469 28404.0469 0 0 1-20.1648-5.0572c-7.6584-1.923-15.3178-3.842-22.9773-5.7606A91139.5957 91139.5957 0 0 1 1383 979c-1.1082-4.6788-.5224-8.2082.6602-12.8008l.5665-2.285c.3993-1.599.804-3.1968 1.2135-4.7934.6096-2.3838 1.1983-4.772 1.7844-7.1618 1.9283-7.7222 4.089-15.286 6.8691-22.748l.7216-1.94c4.8767-12.6093 12.722-22.7224 25.1847-28.271 14.9823-5.7189 32.9324-.5761 45.3203 8.746Z"/><path fill="#232323" d="m1355 1136 3.0313.996c22.7043 7.9632 42.6004 24.831 53.2265 46.5782 7.0014 16.5181 6.6941 34.7073-.0054 51.2744-3.5918 8.339-8.166 15.4452-14.2524 22.1514-.7502.843-1.5005 1.686-2.2734 2.5547-11.0037 11.7158-25.4596 20.0385-41.7578 20.6484-22.0187.3939-40.1175-6.0344-56.9688-20.2031l-2.6055-2.1133c-12.6418-10.721-24.733-26.8464-26.3945-43.8867-.6984-12.1056-.942-23.7086 4-35l1.3555-3.1328c3.1149-6.664 6.8935-12.2772 11.6445-17.8672l1.6133-2.0508c16.3211-20.0606 44.9764-28.8159 69.3867-19.9492Zm-59.8125 37.3125c-7.6595 10.5454-9.719 20.9444-8.1875 33.6875 3.347 16.7945 14.4225 29.8146 27.8125 39.8125 13.9985 9.2119 29.5023 14.9644 46.4023 11.5352 13.44-4.0303 23.3024-12.8805 30.1602-24.9727 5.2663-9.797 6.2417-20.2542 3.7852-31.0742-2.686-8.2205-6.705-14.648-12.1602-21.3008l-1.4258-1.918c-9.2476-11.9209-24.9734-20.8132-39.5742-24.082-20.0643-2.461-33.7411 2.7902-46.8125 18.3125ZM213.625 1029.0625c7.7777 6.345 13.4265 13.2182 18.375 21.9375l1.625 2.7695c7.772 14.2033 11.4362 32.0786 7.2344 47.9492-7.0324 23.5293-22.5461 37.8873-43.461 49.7579-11.9975 6.37-24.1055 8.7106-37.5234 8.7734l-3.2656.0625c-16.9226.0816-31.5072-6.5302-43.6094-18.3125-16.0967-17.5796-22.1694-37.9733-21.1685-61.5098C92.7551 1066.837 99.131 1056.0624 108 1046l2.0234-2.3125C119.8788 1033.136 132.785 1026.4209 146 1021l3.1445-1.3203c20.9153-7.3758 46.7412-3.808 64.4805 9.3828Zm-91.0664 33.0234c-9.138 11.2222-13.0322 23.5184-11.5586 37.9141 2.1915 9.4252 6.2259 18.0308 13 25l2.0234 2.1406c9.5042 9.264 21.1408 12.322 34.1446 12.2032 19.762-1.7728 39.2145-11.6287 52.0117-26.8086 8.7496-12.1856 11.028-22.8493 9.8203-37.5352-.8332-3.9948-2.1375-7.3788-4-11l-1.3555-2.6406c-6.9473-12.4419-16.5458-18.7593-30.1289-22.629-23.1775-4.8157-48.0468 6.644-63.957 23.3555ZM987 1383a2968.3954 2968.3954 0 0 1 1.5 8.25l.4336 2.3555.4102 2.2851.3808 2.0948C990 1400 990 1400 990 1404l-3.75-1c-18.4584-3.5978-40.2996-1.4863-56.25 9-13.0788 10.042-20.413 21.734-23 38-1.6573 16.1736 3.5759 32.43 12.8438 45.625 7.6126 9.235 19.318 16.1866 31.1562 18.375 15.4482.697 28.9436-.9718 43-8-.7021-7.1616-2.32-14.0109-4-21-1.68-6.9891-3.2979-13.8384-4-21l-2.2156.5508c-3.3225.8224-6.6471 1.6359-9.9719 2.4492l-3.4863.8672-3.3692.8203-3.0945.7617c-2.7056.5206-5.1167.6567-7.8625.5508-1.6568-3.7523-2.502-7.2635-3.125-11.3125l-.5078-3.2383L952 1453l2.0535-.4714c3.2115-.7379 6.4228-1.4769 9.634-2.2161l3.5432-.815c5.6945-1.3131 11.3853-2.638 17.0662-4.0092l2.8957-.6985c1.7988-.4357 3.5968-.8742 5.394-1.316l2.4407-.591 2.117-.519C999 1442 999 1442 1002 1442c3.6774 12.354 6.6106 24.8444 9.397 37.4236 1.9032 8.5766 3.9152 17.1127 6.1811 25.6013.9748 3.7374 1.6744 7.1038 1.4219 10.9751-25.2534 13.9636-54.4927 22.8643-83.3125 16.1563-18.8675-5.9161-33.0229-18.211-42.3125-35.6563-9.9733-20.7103-12.793-43.5455-5.375-65.5 3.3467-8.4064 8.0192-15.2524 14-22l1.5742-1.8594C922.351 1386.5193 960.1607 1376.3312 987 1383ZM1154 1299c1.3396 2.7887 2.6706 5.5814 4 8.375l1.1563 2.4063 1.0937 2.3046 1.0156 2.1265C1162 1316 1162 1316 1162 1318l-3.043.2617c-18.942 1.852-39.058 9.7003-51.4336 24.75-4.841 6.485-8.3288 13.1636-10.5234 20.9883l-.5703 1.8867c-2.99 14.7052 1.789 30.6123 9.5703 43.1133 6.5847 9.626 15.0674 17.6312 26 22l2.086.9023c13.6238 5.045 28.8026 2.6358 41.6992-3.1523 7.7697-3.9352 14.4584-9.3148 21.2148-14.75-4.4747-8.3175-9.1398-16.5161-13.875-24.6875l-2.086-3.6074c-1.6784-2.9024-3.3581-5.804-5.039-8.7051-6.6185 3.2005-12.8484 6.8413-19.084 10.7285l-2.1855 1.3223-1.9563 1.2082C1151 1391 1151 1391 1148 1390c-1.8242-2.6523-1.8242-2.6523-3.6875-5.9375l-1.8867-3.2773C1141 1378 1141 1378 1141 1376c2.3462-1.534 4.6875-2.9357 7.125-4.3125 1.5472-.8914 3.094-1.7833 4.6406-2.6758l2.5371-1.4555c4.8792-2.815 9.724-5.6886 14.5723-8.5562l2.899-1.7083 2.7182-1.6042 2.4175-1.4258c1.7253-1.0414 3.4135-2.1439 5.0903-3.2617h3l1.2578 2.2188c6.8187 11.9825 13.7797 23.8818 20.7422 35.7812l1.5288 2.6147c1.343 2.296 2.688 4.591 4.0337 6.8853l1.1538 1.972 1.1001 1.8718 1.0513 1.8085c.8173 1.3338 1.6876 2.6355 2.5888 3.9141 3.6348 5.2539 3.6348 5.2539 3.1841 8.6094-13.3864 18.964-40.5783 33.3687-62.6406 38.6992-17.9354 2.919-35.7377-.474-51-10.375-4.3945-3.2743-8.2067-7.059-12-11l-2.2344-2.211c-5.8954-6.1467-9.8432-13.3062-13.7656-20.789l-1.5078-2.8164c-7.1303-14.3246-8.4828-30.777-4.4922-46.1836.183-.7863.366-1.5727.5547-2.3828 5.5378-21.2626 21.0803-36.4206 39.399-47.2583 11.4631-6.5618 25.5447-13.817 39.0463-13.3589Z"/><path fill="#222" d="M204 294c5.4077.7498 9.492 4.724 13.75 7.875l2.6914 1.9336c.8392.6175 1.6784 1.235 2.543 1.871.7705.5645 1.541 1.129 2.335 1.7105L227 309c0 4.1207-2.1369 6.3197-4.5 9.5l-1.3608 1.8723c-2.1707 2.9814-4.3705 5.9401-6.5845 8.8894l-2.1797 2.9258-1.9766 2.6055c-1.666 2.1939-1.666 2.1939-1.3984 5.207 1.3887 1.4204 1.3887 1.4204 3.3047 2.6797l2.1802 1.5452 2.3901 1.6501c1.6616 1.173 3.323 2.3461 4.9844 3.5195l2.5918 1.815c3.9156 2.7507 7.7957 5.5498 11.6738 8.353l2.2524 1.6238c5.6763 4.1016 11.2818 8.2918 16.8719 12.5097 4.6915 3.532 9.4414 6.969 14.2341 10.3619 6.0437 4.2896 11.9961 8.7021 17.9456 13.1213 4.1239 3.0546 8.2691 6.0218 12.571 8.8208-.6157 3.2528-1.7349 5.3241-3.6953 7.9766l-1.6614 2.27-1.7683 2.3784a9144.486 9144.486 0 0 0-3.5508 4.8438l-1.7329 2.3554c-2.933 4.0103-5.767 8.0884-8.5913 12.1758-3.0993-.607-5.1234-1.5835-7.6602-3.4492l-2.125-1.5488-2.2773-1.6895-2.3984-1.7559C262.0212 427.711 259.51 425.8562 257 424a16944.6053 16944.6053 0 0 0-4.7773-3.5195 6644.7295 6644.7295 0 0 1-7.1136-5.2469c-5.3448-3.9462-10.717-7.8523-16.1091-11.7336-6.2569-4.5046-12.4836-9.0477-18.6875-13.625l-2.3828-1.7566a3256.1826 3256.1826 0 0 1-11.3555-8.4114l-4.0742-3.0195-1.8699-1.4009c-2.54-1.8784-4.6103-3.28-7.6301-4.2866l-.8347 1.7585c-1.1337 2.1808-2.3855 4.1042-3.8098 6.1048l-1.5528 2.1894-1.6152 2.2598c-.5214.7341-1.0429 1.4682-1.58 2.2246A3193.1497 3193.1497 0 0 1 169 392l-1.5015 2.103A15323.5893 15323.5893 0 0 1 164 399c-2.9974-1.4041-5.5895-3.049-8.2578-5.004l-2.3945-1.744-2.4727-1.8145c-1.6267-1.19-3.2542-2.379-4.8828-3.5664l-2.1763-1.596c-1.7901-1.3239-1.7901-1.3239-3.8159-2.2751 1.4402-4.2282 3.5332-7.2077 6.3125-10.6875 4.1116-5.222 8.0645-10.5363 11.9375-15.9375a1667.3473 1667.3473 0 0 1 13.9375-19.125c3.9814-5.3863 7.9367-10.787 11.8125-16.25 4.1266-5.8159 8.334-11.5704 12.5625-17.3125l1.8809-2.5566a225144851.5219 225144851.5219 0 0 1 3.3166-4.4954C203 295 203 295 204 294ZM64 541c6.2021.6245 11.9943 1.9158 18 3.5625l2.6367.709A1483.433 1483.433 0 0 1 91 547c1.3323 4.339.34 7.8314-.75 12.125l-.5596 2.2957c-1.2175 4.9232-2.573 9.785-4.1748 14.5988-.6836 2.2846-.6836 2.2846-.5156 5.9805 15.4928 4.2517 31.0222 8.3093 46.6191 12.1582 11.7617 2.909 23.468 5.9958 35.1309 9.2793 9.389 2.627 18.8156 5.1045 28.25 7.5625-.6715 7.489-2.5715 14.5594-4.5 21.8125l-.9727 3.7168c-2.3449 8.9234-2.3449 8.9234-3.5273 12.4707-15.091-3.323-30.0863-6.955-45-11-2.9986-.7971-5.9992-1.5865-9-2.375l-2.4065-.6333a4449.2464 4449.2464 0 0 0-13.0037-3.398C102.037 627.8134 87.5134 623.9294 73 620l-.1528 1.727c-.4812 4.9025-1.286 9.4165-2.7222 14.148l-1.0703 3.5938L68 643a958.1557 958.1557 0 0 0-1.75 6.375l-.7344 2.711L65 654c-9.6156-1.3915-18.738-4.1552-28-7 1.9511-10.612 4.4895-20.9758 7.2998-31.3887 1.2372-4.614 2.4354-9.2381 3.6377-13.8613l1.5195-5.8281c1.0397-3.9895 2.0786-7.979 3.1172-11.9688C56.3083 569.615 60.079 555.2884 64 541Z"/><path fill="#232323" d="M1376 997c6.2552.4836 11.2952 3.3733 16.8125 6.125a2742.5407 2742.5407 0 0 0 6.7383 3.289l1.798.875c6.6242 3.208 13.3294 6.2339 20.039 9.258 4.2078 1.8986 8.4089 3.8121 12.6105 5.7244 3.2252 1.4677 6.4516 2.9324 9.6829 4.3868 20.2587 9.1577 38.1956 18.4722 47.4086 39.8965 5.3755 14.4421 1.3899 30.5208-4.7148 44.0078-6.5772 13.7917-15.9936 23.9095-30.3125 29.7266-23.789 8.2-48.0263-5.193-69-14.9766a11490.038 11490.038 0 0 0-5.187-2.4072c-3.404-1.579-6.8072-3.1593-10.21-4.7407-6.0869-2.8267-12.187-5.624-18.2905-8.4146-1.8464-.845-3.6927-1.69-5.539-2.5352l-2.4932-1.141c-5.1196-2.3465-10.2321-4.7081-15.3428-7.0738.6181-4.5532 2.4677-8.2846 4.5625-12.3125l.998-1.955c.8077-1.5804 1.6229-3.1568 2.4395-4.7325 4.6391.652 8.5936 2.4939 12.789 4.4727l2.3156 1.0757c1.649.7667 3.2967 1.536 4.9434 2.3073a2586.1864 2586.1864 0 0 0 7.8104 3.639c3.596 1.6696 7.191 3.3413 10.7852 5.0146a4756.2095 4756.2095 0 0 0 22.364 10.335c2.1874 1.0054 4.3724 2.0161 6.5573 3.027 22.3476 10.4077 22.3476 10.4077 46.4585 9.1873 10.3153-4.9408 16.094-13.5755 19.9766-24.0586.7672-2.8508.7672-2.8508 1-6 .114-1.1118.114-1.1118.2305-2.246.4065-7.0428-1.4948-11.845-5.2305-17.754l-1.1758-1.8672c-8.2167-11.0404-24.0433-16.9217-36.1992-22.5078a5206.2844 5206.2844 0 0 1-4.789-2.2305c-3.9024-1.8167-7.8102-3.6215-11.7206-5.4207a3163.363 3163.363 0 0 1-5.7922-2.674c-13.397-6.197-26.8525-12.2648-40.3232-18.2998 1.3988-4.468 3.1363-8.6382 5.125-12.875l1.6328-3.4922L1376 997ZM418 1287c4.2719 1.5285 7.9933 3.715 11.8125 6.125.5975.3725 1.195.745 1.8105 1.129A1290.857 1290.857 0 0 1 436 1297c-1.3107 3.4972-2.8483 6.6001-4.8008 9.7813l-1.6914 2.7675-1.8203 2.9512-1.8945 3.0918c-4.0784 6.648-8.1845 13.2788-12.293 19.9082a29365.422 29365.422 0 0 0-4.8218 7.7905 3582.0122 3582.0122 0 0 1-3.4775 5.6026c-8.8988 14.2793-8.8988 14.2793-16.9507 29.0444l-.9426 1.841c-4.562 9.3391-5.955 18.8857-2.7449 28.8465 4.424 10.929 12.8956 16.6712 23.4375 21.25 7.47 2.505 14.4626 1.6324 21.5625-1.5625 13.3457-7.1861 21.1925-19.974 28.6875-32.6875a2635.707 2635.707 0 0 1 2.2258-3.7214 3200.5417 3200.5417 0 0 0 3.3573-5.6132c3.7243-6.2434 7.5553-12.4186 11.404-18.586a780.317 780.317 0 0 0 8.5363-14.0403l1.9153-3.2078a840.3453 840.3453 0 0 0 3.644-6.1724l1.6712-2.7956 1.4631-2.4832c1.7203-2.25 2.8099-3.217 5.533-4.0051 1.9229.691 1.9229.691 3.8906 1.9922l2.1485 1.3867 2.2109 1.4961 2.2578 1.4727A432.8043 432.8043 0 0 1 514 1345c-3.0686 6.3893-6.3858 12.4367-10.25 18.375-4.7953 7.4761-9.4484 15.0302-14.0365 22.6344-5.6852 9.4178-11.4079 18.8103-17.276 28.1156l-1.6206 2.597c-9.4954 14.9514-21.1429 28.6823-38.7437 33.843-15.5139 3.2555-30.5528-.4689-43.6982-8.901-12.3353-8.6428-23.226-19.2798-26.375-34.664-2.232-27.4342 9.7163-46.0705 23.8906-68.461 4.0052-6.34 7.8944-12.7457 11.7676-19.1667C404.2455 1308.4525 410.964 1297.6376 418 1287ZM378.8828 1247.6914c9.7606 7.2287 23.2488 18.8012 25.1172 31.3086a1640.4137 1640.4137 0 0 1-6.375 5.5l-1.8281 1.5898C391.2266 1290 391.2266 1290 389 1290l-.996-2.0547c-6.0164-11.7717-15.0627-23.2026-28.0626-27.4766-4.4175-1.0665-7.8124-.8751-12.0664.6563-3.938 2.5682-6.7461 5.6173-8.875 9.875-1.4122 10.3325 2.09 18.7156 6 28 .83 2.0218 1.6527 4.0462 2.4702 6.073.7338 1.8133 1.4829 3.6204 2.233 5.427 4.188 11.3026 5.712 24.5236 1.2968 36-5.7672 11.6799-14.3215 19.96-26.375 24.9375-11.7375 3.8081-22.8433 1.3455-33.7266-3.9453C276.293 1359.378 264.4417 1348.0945 257 1333c.5153-4.6276 3.7323-6.8498 7.0625-9.75l1.7207-1.5352c1.3988-1.246 2.807-2.4814 4.2168-3.7148 2.809 2.482 4.3017 5.2121 6.0625 8.5 6.7159 11.6296 15.0164 20.193 27.9375 24.5 6.7004.8207 12.3118-.3181 18-4 5.2579-4.9492 7.2192-8.6156 7.5625-15.875.1645-9.8356-3.5904-17.8432-7.4932-26.6938-5.7965-13.1785-10.6111-26.6888-5.8857-41.021 1.4204-2.9848 2.9671-5.674 4.8164-8.4102l1.1602-1.8164c14.083-19.3326 38.4643-16.7523 56.7226-5.4922Z"/><path fill="#222" d="M1364 284c4.1536 1.5588 6.4697 4.5969 9.1875 7.9375l1.445 1.7458a920.5137 920.5137 0 0 1 2.9349 3.5696c1.3498 1.6462 2.7126 3.2804 4.081 4.9112 6.6173 7.945 6.6173 7.945 8.3516 11.8359-7.3374 6.3305-14.6992 12.6133-22.2227 18.7227-3.1213 2.5593-6.2018 5.1632-9.2773 7.7773-4.8495 4.121-9.7516 8.17-14.6875 12.1875-3.1305 2.574-6.2242 5.1882-9.3125 7.8125-4.8496 4.121-9.7516 8.17-14.6875 12.1875-3.1305 2.574-6.2242 5.1882-9.3125 7.8125-4.837 4.1104-9.7232 8.1524-14.6523 12.1523a389.624 389.624 0 0 0-6.3516 5.3516l-1.793 1.539a620.6419 620.6419 0 0 0-3.4648 3.004C1280.2212 406 1280.2212 406 1278 406c-1.5586-1.7305-1.5586-1.7305-3.4375-4.1875-3.7456-4.8118-7.6296-9.4696-11.617-14.0808-3.2207-3.7614-6.1105-7.6708-8.9455-11.7317 7.6673-6.6947 15.3476-13.3499 23.2578-19.7578 3.1122-2.5447 6.1795-5.1384 9.2422-7.7422 4.8495-4.1211 9.7516-8.17 14.6875-12.1875 3.1305-2.574 6.2242-5.1882 9.3125-7.8125 4.8496-4.121 9.7516-8.17 14.6875-12.1875 3.1305-2.574 6.2242-5.1882 9.3125-7.8125 4.8595-4.1285 9.7659-8.1927 14.711-12.2188 4.96-4.057 9.8726-8.1713 14.789-12.2812ZM776 23c1.1815 7.8206 1.39 15.6781 1.6836 23.5703.0601 1.5458.1206 3.0915.1813 4.6372.1613 4.1217.3187 8.2434.4752 12.3652.2603 6.823.5281 13.6459.7948 20.4687.0664 1.7003.1326 3.4007.1987 5.101.4082 10.4969.8346 20.9924 1.307 31.4865l.1444 3.2176c.2136 4.732.432 9.4636.6562 14.195.4622 9.9964.6601 19.9506.5588 29.9585-2.7497.1742-5.4995.3392-8.25.5l-2.2383.1445c-6.3001.3586-12.5855.382-18.8935.3692l-2.8071-.003A7846.9719 7846.9719 0 0 1 743 169c-.6579-15.379-1.31-30.7582-1.9558-46.1376-.3-7.1436-.6018-14.2872-.908-21.4305a15639.317 15639.317 0 0 1-.791-18.7149 6152.5163 6152.5163 0 0 0-.4192-9.8765C738.2363 56.8833 737.8326 40.9727 738 25c2.4677-1.2339 4.2647-1.2063 7.0234-1.3164l3.0977-.127 3.2539-.1191 3.1367-.1309c7.1658-.281 14.3175-.3572 21.4883-.3066Z"/><path fill="#232323" d="M175.125 925.25c13.7282 12.9345 24.8957 31.7898 26.0767 51.0366.2104 7.5764.0821 15.1406-.2017 22.7134-4.7173 1.4783-8.9722 2.3179-13.9375 2.625l-3.4648.2266L181 1002l.2188-1.7305c2.2006-19.225-.141-35.7637-11.9688-51.582-7.7651-9.1423-16.9973-13.2578-28.25-16.6875l-1.961-.6133C122.672 928.2827 105.6709 933.0274 92 942c-10.8234 7.7573-17.3886 18.2038-20.3828 31.121-2.8152 17.6929 1.4695 33.7666 11.0508 48.758C84 1024 84 1024 86 1028l-19 6c-14.2342-18.9789-18.5535-45.1421-15.7158-68.3213C53.7702 951.609 60.9518 939.9077 71 930l1.8594-1.8906C81.4972 919.9145 92.7242 914.4879 104 911l3.625-1.1875c23.7681-5.722 48.8903-.6512 67.5 15.4375Z"/><path fill="#242423" d="m587 1376 2.9839.731c4.6298 1.1334 9.2603 2.2643 13.8911 3.394l2.572.6275c10.0236 2.4432 20.0522 4.8473 30.1155 7.1225 19.2282 4.358 38.3214 9.3042 57.4375 14.125a2363.623 2363.623 0 0 1-.9297 5.2383l-.523 2.9465c-.6523 3.3551-1.5326 6.5536-2.5473 9.8152-5.5491-.6235-10.93-1.52-16.375-2.75l-2.312-.5166c-8.5198-1.945-16.9183-4.3122-25.313-6.7334l-.7344 3.8125A21586.456 21586.456 0 0 1 644.25 1419l-.4766 2.4844c-1.036 5.2601-2.2345 10.4617-3.5432 15.6609l-.526 2.0928A8638.8528 8638.8528 0 0 1 638 1446l-1.161 4.6083a23528.8988 23528.8988 0 0 1-3.7882 15.005l-.6872 2.719c-1.194 4.7239-2.3881 9.4476-3.5826 14.1714-.985 3.8956-1.9693 7.7915-2.9531 11.6875-1.1967 4.739-2.3944 9.4776-3.593 14.216-.4545 1.7978-.9086 3.5955-1.3623 5.3934a10962.268 10962.268 0 0 1-1.8948 7.4936l-.5651 2.243c-.7247 2.8576-1.48 5.6647-2.4127 8.4628-6.5753-.6203-12.667-2.149-19-4-1.1159-3.3495-.8626-5.4798.039-8.8672l.7525-2.9004.8335-3.1074c.5646-2.174 1.127-4.3484 1.6875-6.5234l.8633-3.3389c1.4461-5.7245 2.7256-11.4854 3.9985-17.2505 2.4774-11.1296 5.3417-22.1635 8.2002-33.1999 1.1635-4.4923 2.3225-8.9858 3.4815-13.4793.6008-2.3238 1.204-4.647 1.8095-6.9697.8839-3.3929 1.7585-6.788 2.6314-10.1836l.8236-3.1346.7496-2.9362.6633-2.5589c.6466-3.1016.6466-3.1016.4666-8.55l-40-10c-1.0558-5.2792-.6086-7.2994.9375-12.3125l1.1523-3.8008L587 1376ZM533 1353a8452.782 8452.782 0 0 1 8.375 2.9375l2.4063.8418 2.3046.8105 2.1265.7459C550 1359 550 1359 552 1360c-.7244 4.7687-2.445 9.0155-4.211 13.4727l-.9814 2.506c-1.057 2.6962-2.1197 5.39-3.1826 8.0838-.7343 1.8699-1.4683 3.74-2.2019 5.6101-1.8109 4.614-3.6262 9.2262-5.443 13.8379-1.37 3.4797-2.736 6.961-4.1012 10.4426a15526.594 15526.594 0 0 1-10.0469 25.5455c-5.0454 12.7969-10.081 25.5917-14.832 38.5014l1.6523.531c5.5403 1.8095 10.9502 3.8357 16.3477 6.0315 5.9206 2.406 11.8504 4.7716 17.8242 7.043l3.4551 1.3318a660.9414 660.9414 0 0 0 6.7578 2.561l3.0996 1.2048 2.7722 1.0518C561 1499 561 1499 561.8596 1500.9436c.2216 3.2453-.9387 5.7393-2.1096 8.7439l-1.3281 3.5117C557 1516 557 1516 554 1517c-2.181-.6106-2.181-.6106-4.8008-1.6758-1.0187-.4076-2.0373-.8152-3.0869-1.235l-3.4248-1.4017a6383.4107 6383.4107 0 0 0-5.4994-2.205 2761.588 2761.588 0 0 1-4.0971-1.6448c-9.531-3.8314-19.1056-7.5524-28.6743-11.2885-5.1138-1.9971-10.2261-3.998-15.3386-5.9984a159325.7477 159325.7477 0 0 0-7.5202-2.9415L480 1488c2.0325-6.2626 4.2433-12.4352 6.6016-18.582l1.0455-2.7344c3.7591-9.7967 7.6284-19.5495 11.5064-29.2996 6.0285-15.1584 12.0192-30.3268 17.8255-45.5717 2.3937-6.2595 4.9408-12.417 7.642-18.5506 1.9768-4.6757 3.7302-9.4292 5.464-14.1997 1.8156-4.9626 1.8156-4.9626 2.915-6.062ZM703 1402c7.2308-.1463 13.891.6926 21 2-.5304 9.4977-1.4012 18.8295-2.75 28.25-1.7626 12.731-3.2927 25.4806-4.75 38.25-1.5696 13.7296-3.2397 27.4336-5.1123 41.1255-1.6474 12.1039-3.0365 24.2345-4.3877 36.3745l-21-3c.7617-11.1915 2.0017-22.2992 3.3125-33.4375l.3357-2.8735c1.5167-12.974 3.1336-25.9283 4.8997-38.8709 1.7186-12.6304 3.2273-25.2844 4.7436-37.9403 1.1959-9.9642 2.4521-19.921 3.7085-29.8778Z"/><path fill="#FDFDFD" d="M1446.4375 922.125c6.0704 3.473 9.8363 7.6968 12.0508 14.5195 2.503 11.5211-.1938 26.7664-5.4883 37.3555-6.0088-1.295-12.0054-2.6409-18-4l-3.6826-.8281c-3.3015-.7446-6.599-1.5051-9.8947-2.2744a586.4512 586.4512 0 0 0-3.9775-.907c-1.8817-.4233-3.7593-.8647-5.6366-1.307l-3.3186-.7638L1406 963c-1.3215-3.9645-.3776-6.9941.5625-10.9375l.5471-2.2981c2.7443-10.8294 7.3256-21.3886 16.9529-27.6394 7.3418-3.7562 14.9618-3.3977 22.375 0Z"/><path fill="#FCFCFC" d="M1241.1758 1262.5195c4.0263 3.2677 6.5319 7.8959 8.8242 12.4805.6967 7.8034-1.1065 14.1087-5.8125 20.4375-6.1613 7.0673-13.2257 13.3-20.1875 19.5625-3.2244-1.0748-3.8327-1.6757-5.9375-4.1875l-1.8438-2.1719L1214 1306c-1.9748-2.3162-3.9564-4.6266-5.9375-6.9375l-1.5613-1.8254c-4.1085-4.7984-8.2766-9.5404-12.5012-14.2371 29.9442-30.1623 29.9442-30.1623 47.1758-20.4805ZM198 482c3.4375 1.6875 3.4375 1.6875 6 4l2.375 2c2.891 5.3372 2.7482 11.0838 1.083 16.8896-2.5072 7.2948-5.8466 14.3044-9.458 21.1104-6.9645-2.1621-13.4311-4.9067-20-8.0625l-2.8867-1.3535-2.7383-1.3067-2.4766-1.1799C168 513 168 513 167 511c1.3579-3.5344 3.2387-6.8392 5-10.1875l1.4258-2.83C179.359 486.6195 184.7513 480.6507 198 482Z"/><path fill="#FBFBFB" d="M1264 224c8.4895 3.988 18.3976 13.2514 22 22 .9689 5.0598.611 8.7308-1.625 13.375-3.7797 4.1775-6.9564 6.818-12.6875 7.1875-11.2408-.6535-19.7454-10.479-27.6875-17.5625.5841-3.1918 1.4897-4.8776 3.7305-7.207l1.6855-1.7793 1.7715-1.8262c1.1407-1.1927 2.28-2.3867 3.418-3.582l1.6967-1.7798c2.662-2.8625 5.1772-5.8384 7.6978-8.8257Z"/><path fill="#FAFAFA" d="M142 460c5.3374 1.9884 8.4533 4.9067 11 10 1.2803 10.7908-4.1981 20.6125-9 30-5.736-.9551-10.5358-3.391-15.75-5.875l-2.9414-1.3555-2.793-1.3242-2.5537-1.2026C118 489 118 489 117 486c1.114-3.2454 2.8355-6.2207 4.4375-9.25l1.2559-2.5273c4.045-7.726 9.6284-16.015 19.3066-14.2227Z"/><path fill="#367B40" d="M1116 667c5.2286 2.3529 9.5175 5.4845 14 9l-2 3c-2.875-.6875-2.875-.6875-6-2-1.125-2.5-1.125-2.5-2-5-2.0174-1.3441-2.0174-1.3441-4-2v-3Z"/><path fill="#3D7E47" d="m1118 905 5 2-5 4-1-2-2-1 3-3Z"/></svg>